<svg width="32" height="32" viewBox="0 0 32 32" fill="none" xmlns="http://www.w3.org/2000/svg">
<path fill-rule="evenodd" clip-rule="evenodd" d="M26 16C26 19.2887 25.8882 21.5945 25.7814 23.0467C25.6744 24.5029 24.5657 25.6481 23.1004 25.7734C21.7739 25.8869 19.7374 26 16.8889 26C14.0404 26 12.0039 25.8869 10.6774 25.7734C9.21208 25.6481 8.10344 24.5029 7.99636 23.0467C7.98265 22.8601 7.96884 22.6594 7.95521 22.4444C7.72312 22.444 7.51077 22.4401 7.32173 22.4346C6.62496 22.4141 6.02983 21.9545 6.00509 21.2102C6.00183 21.112 6 21.0051 6 20.8889C6 20.7727 6.00183 20.6658 6.00509 20.5676C6.02983 19.8232 6.62496 19.3637 7.32173 19.3432C7.4734 19.3387 7.64007 19.3354 7.8199 19.334C7.80526 18.7844 7.79372 18.1916 7.78645 17.5546C7.61937 17.5531 7.46395 17.5499 7.32173 17.5457C6.62496 17.5252 6.02983 17.0656 6.00509 16.3213C6.00183 16.2231 6 16.1162 6 16C6 15.8838 6.00183 15.7769 6.00509 15.6787C6.02983 14.9344 6.62496 14.4748 7.32173 14.4543C7.46395 14.4501 7.61937 14.4469 7.78646 14.4454C7.79372 13.8084 7.80526 13.2156 7.8199 12.666C7.64007 12.6646 7.4734 12.6613 7.32173 12.6568C6.62496 12.6363 6.02983 12.1767 6.00509 11.4324C6.00183 11.3342 6 11.2273 6 11.1111C6 10.9949 6.00183 10.888 6.00509 10.7898C6.02983 10.0455 6.62496 9.5859 7.32173 9.5654C7.51077 9.55984 7.72312 9.55603 7.95521 9.5556C7.96885 9.34056 7.98265 9.13988 7.99637 8.9533C8.10344 7.49709 9.21208 6.35191 10.6774 6.22655C12.0039 6.11308 14.0404 6 16.8889 6C19.7374 6 21.7739 6.11308 23.1004 6.22656C24.5657 6.35191 25.6744 7.4971 25.7814 8.9533C25.8882 10.4055 26 12.7113 26 16ZM16.8687 9.38667C14.768 9.38667 13.4844 10.5862 13.1151 11.8548L13.1146 11.8565C13.0471 12.0949 13.0133 12.3448 13.0133 12.5837C13.0133 12.8893 13.0931 13.1618 13.2726 13.3595C13.4542 13.5595 13.7097 13.6518 13.9979 13.6518C14.2511 13.6518 14.4785 13.5873 14.6633 13.4377C14.8463 13.2896 14.9644 13.0767 15.0348 12.8231C15.1746 12.3542 15.3795 12.0159 15.6541 11.7934C15.9272 11.572 16.2921 11.4468 16.7867 11.4468C17.3058 11.4468 17.7162 11.6064 17.9936 11.8563C18.269 12.1044 18.4268 12.4531 18.4268 12.8662C18.4268 13.2575 18.3464 13.5448 18.1659 13.8062C17.9796 14.0762 17.6749 14.336 17.1912 14.6457C16.6146 15.0045 16.1882 15.3918 15.9082 15.8629C15.6265 16.3367 15.5048 16.8753 15.5048 17.5151V17.678C15.5048 17.9922 15.5997 18.2668 15.7965 18.4623C15.9923 18.6567 16.2619 18.7461 16.5611 18.7461C16.8583 18.7461 17.1267 18.6522 17.3219 18.4582C17.5181 18.2632 17.6175 17.9899 17.6175 17.678V17.6563C17.6175 17.2577 17.6858 16.9808 17.8571 16.7304C18.0351 16.4705 18.3393 16.2166 18.86 15.9006L18.864 15.8981C19.9895 15.1827 20.6933 14.1928 20.6933 12.7901C20.6933 11.8054 20.3012 10.9486 19.6198 10.341C18.9405 9.73511 17.9854 9.38667 16.8687 9.38667ZM15.2895 21.4653C15.2895 20.7144 15.8452 20.1148 16.5714 20.1148C17.3093 20.1148 17.8533 20.7159 17.8533 21.4653C17.8533 22.2117 17.3121 22.8267 16.5714 22.8267C15.8424 22.8267 15.2895 22.2132 15.2895 21.4653Z" fill="black"/>
</svg>
